<svg width="1000" height="1000" viewBox="0 0 1000 1000" fill="none" xmlns="http://www.w3.org/2000/svg">
<path d="M816.078 256.219C825.937 255.759 835.209 251.402 841.855 244.105C848.501 236.809 851.976 227.171 851.516 217.313C851.056 207.454 846.699 198.182 839.402 191.536C832.106 184.891 822.468 181.415 812.61 181.875L798.672 182.516L798.032 168.579C797.804 163.697 796.617 158.908 794.538 154.485C792.46 150.063 789.531 146.093 785.918 142.802C782.305 139.511 778.08 136.964 773.482 135.307C768.885 133.649 764.007 132.913 759.125 133.141C754.244 133.369 749.455 134.556 745.032 136.634C740.61 138.713 736.64 141.642 733.349 145.255C730.058 148.868 727.511 153.093 725.854 157.69C724.196 162.287 723.46 167.166 723.688 172.047L727.797 260.329L816.078 256.219V256.219ZM833.282 365.813L832.782 376.563L822.032 376.063C818.255 375.866 814.477 376.417 810.915 377.685C807.353 378.954 804.076 380.914 801.274 383.453C798.472 385.992 796.199 389.06 794.587 392.48C792.975 395.9 792.054 399.606 791.879 403.383C791.704 407.161 792.278 410.935 793.567 414.49C794.856 418.045 796.835 421.31 799.39 424.097C801.945 426.885 805.027 429.139 808.456 430.732C811.886 432.324 815.597 433.222 819.375 433.375L887.422 436.532L890.579 368.485C890.754 364.723 890.187 360.963 888.909 357.42C887.631 353.877 885.668 350.62 883.132 347.836C880.596 345.052 877.536 342.794 874.128 341.192C870.719 339.591 867.028 338.676 863.266 338.5C859.504 338.325 855.744 338.892 852.201 340.17C848.658 341.448 845.402 343.41 842.617 345.947C839.833 348.483 837.575 351.543 835.974 354.951C834.372 358.36 833.457 362.051 833.282 365.813Z" fill="#FD0C91"/>
<path d="M695.312 84.9688C706.099 84.9688 714.844 76.2243 714.844 65.4375C714.844 54.6507 706.099 45.9062 695.312 45.9062C684.526 45.9062 675.781 54.6507 675.781 65.4375C675.781 76.2243 684.526 84.9688 695.312 84.9688Z" fill="#E271A2"/>
<path d="M890.625 143.141C901.412 143.141 910.156 134.396 910.156 123.609C910.156 112.823 901.412 104.078 890.625 104.078C879.838 104.078 871.094 112.823 871.094 123.609C871.094 134.396 879.838 143.141 890.625 143.141Z" fill="#71159E"/>
<path d="M714.844 357.984C725.631 357.984 734.375 349.24 734.375 338.453C734.375 327.666 725.631 318.922 714.844 318.922C704.057 318.922 695.312 327.666 695.312 338.453C695.312 349.24 704.057 357.984 714.844 357.984Z" fill="#D503BC"/>
<path d="M183.922 256.219L272.203 260.328L276.313 172.047C276.586 162.3 273.023 152.834 266.39 145.687C259.757 138.539 250.584 134.28 240.843 133.826C231.103 133.371 221.573 136.758 214.303 143.256C207.033 149.755 202.604 158.848 201.969 168.578L201.328 182.516L187.391 181.875C177.532 181.415 167.895 184.89 160.598 191.536C153.302 198.182 148.945 207.454 148.485 217.313C148.025 227.171 151.5 236.809 158.146 244.105C164.791 251.401 174.063 255.759 183.922 256.219V256.219ZM109.406 368.469L112.563 436.516L180.61 433.359C184.388 433.206 188.099 432.308 191.528 430.716C194.958 429.123 198.039 426.869 200.595 424.082C203.15 421.294 205.129 418.029 206.418 414.474C207.707 410.919 208.281 407.145 208.106 403.367C207.93 399.59 207.01 395.885 205.398 392.464C203.786 389.044 201.513 385.976 198.711 383.437C195.909 380.898 192.632 378.938 189.07 377.669C185.508 376.401 181.73 375.85 177.953 376.047L167.203 376.547L166.703 365.797C166.615 361.974 165.763 358.207 164.198 354.718C162.633 351.229 160.386 348.088 157.59 345.48C154.793 342.872 151.503 340.849 147.914 339.53C144.324 338.212 140.507 337.625 136.687 337.803C132.867 337.981 129.121 338.921 125.67 340.568C122.219 342.214 119.131 344.534 116.59 347.392C114.048 350.249 112.103 353.585 110.87 357.205C109.636 360.824 109.139 364.654 109.406 368.469V368.469Z" fill="#FD0C91"/>
<path d="M304.688 84.9688C315.474 84.9688 324.219 76.2243 324.219 65.4375C324.219 54.6507 315.474 45.9062 304.688 45.9062C293.901 45.9062 285.156 54.6507 285.156 65.4375C285.156 76.2243 293.901 84.9688 304.688 84.9688Z" fill="#D503BC"/>
<path d="M109.375 143.141C120.162 143.141 128.906 134.396 128.906 123.609C128.906 112.823 120.162 104.078 109.375 104.078C98.5882 104.078 89.8438 112.823 89.8438 123.609C89.8438 134.396 98.5882 143.141 109.375 143.141Z" fill="#71159E"/>
<path d="M285.156 357.984C295.943 357.984 304.688 349.24 304.688 338.453C304.688 327.666 295.943 318.922 285.156 318.922C274.369 318.922 265.625 327.666 265.625 338.453C265.625 349.24 274.369 357.984 285.156 357.984Z" fill="#EE30FF"/>
<path d="M500 426.766C537.687 426.766 568.359 396.094 568.359 358.406C568.359 320.719 537.687 290.047 500 290.047C462.312 290.047 431.641 320.719 431.641 358.406C431.641 396.094 462.312 426.766 500 426.766ZM500 309.578C526.922 309.578 548.828 331.484 548.828 358.406C548.828 385.328 526.922 407.234 500 407.234C473.078 407.234 451.172 385.328 451.172 358.406C451.172 331.484 473.078 309.578 500 309.578ZM60.9219 836.922C65.9219 902.375 120.781 954.109 187.5 954.109H812.5C879.219 954.109 934.078 902.375 939.078 836.922H60.9219Z" fill="#FA971A"/>
<path d="M99.7344 817.391H177.906C181.312 706.625 242.313 604.125 338.859 548.141C341.095 546.911 343.723 546.605 346.181 547.289C348.64 547.972 350.733 549.591 352.013 551.798C353.293 554.005 353.659 556.625 353.031 559.099C352.404 561.572 350.834 563.701 348.656 565.031C258.109 617.516 200.828 713.547 197.437 817.375H900.281C895.078 601.094 717.531 426.75 500.016 426.75C282.5 426.75 104.938 601.094 99.7344 817.391ZM500 504.891C541.766 504.891 582.422 512.797 620.859 528.406C622.073 528.87 623.181 529.572 624.12 530.47C625.059 531.368 625.809 532.444 626.327 533.635C626.844 534.827 627.119 536.109 627.135 537.408C627.151 538.707 626.907 539.996 626.419 541.2C625.93 542.404 625.206 543.498 624.29 544.418C623.373 545.339 622.282 546.067 621.081 546.56C619.879 547.054 618.591 547.303 617.292 547.293C615.993 547.282 614.709 547.013 613.516 546.5C577.465 531.855 538.912 524.356 500 524.422C497.41 524.422 494.926 523.393 493.095 521.562C491.263 519.73 490.234 517.246 490.234 514.656C490.234 512.066 491.263 509.582 493.095 507.751C494.926 505.92 497.41 504.891 500 504.891V504.891Z" fill="#F19200"/>
</svg>
