<svg width="500" height="500" viewBox="0 0 500 500" fill="none" xmlns="http://www.w3.org/2000/svg">
<path d="M468.75 250C468.75 258.625 461.766 265.625 453.125 265.625H421.875C413.234 265.625 406.25 258.625 406.25 250C406.25 241.375 413.234 234.375 421.875 234.375H453.125C461.766 234.375 468.75 241.375 468.75 250Z" fill="#FFEF5D"/>
<path d="M363.953 136.047C357.844 129.938 357.844 120.062 363.953 113.953L382.578 95.3281C388.688 89.2188 398.562 89.2188 404.672 95.3281C410.781 101.438 410.781 111.312 404.672 117.422L386.047 136.047C379.938 142.156 370.062 142.156 363.953 136.047Z" fill="#FFEF5D"/>
<path d="M250 93.75C241.359 93.75 234.375 86.75 234.375 78.125V46.875C234.375 38.25 241.359 31.25 250 31.25C258.641 31.25 265.625 38.25 265.625 46.875V78.125C265.625 86.75 258.641 93.75 250 93.75Z" fill="#FFEF5D"/>
<path d="M95.3281 117.422C89.2188 111.312 89.2188 101.438 95.3281 95.3281C101.438 89.2188 111.312 89.2188 117.422 95.3281L136.047 113.953C142.156 120.062 142.156 129.938 136.047 136.047C129.938 142.156 120.062 142.156 113.953 136.047L95.3281 117.422Z" fill="#FFEF5D"/>
<path d="M78.125 265.625H46.875C38.2344 265.625 31.25 258.625 31.25 250C31.25 241.375 38.2344 234.375 46.875 234.375H78.125C86.7656 234.375 93.75 241.375 93.75 250C93.75 258.625 86.7656 265.625 78.125 265.625Z" fill="#FFEF5D"/>
<path d="M129.109 281.25C126.516 271.234 125 260.812 125 250C125 181.078 181.078 125 250 125C318.922 125 375 181.078 375 250C375 260.812 373.484 271.234 370.891 281.25H129.109Z" fill="#FFEF5D"/>
<path d="M414.062 343.75H85.9375C81.625 343.75 78.125 340.25 78.125 335.938V320.312C78.125 316 81.625 312.5 85.9375 312.5H414.062C418.375 312.5 421.875 316 421.875 320.312V335.938C421.875 340.25 418.375 343.75 414.062 343.75Z" fill="#03989B"/>
<path d="M304.688 468.75H195.312C191 468.75 187.5 465.25 187.5 460.938V445.312C187.5 441 191 437.5 195.312 437.5H304.688C309 437.5 312.5 441 312.5 445.312V460.938C312.5 465.25 309 468.75 304.688 468.75Z" fill="#00AFFD"/>
<path d="M367.188 406.25H132.812C128.5 406.25 125 402.75 125 398.438V382.812C125 378.5 128.5 375 132.812 375H367.188C371.5 375 375 378.5 375 382.812V398.438C375 402.75 371.5 406.25 367.188 406.25Z" fill="#4AA5FF"/>
</svg>
