<svg width="1000" height="1000" viewBox="0 0 1000 1000" fill="none" xmlns="http://www.w3.org/2000/svg">
<path d="M937.5 500C937.5 517.25 923.531 531.25 906.25 531.25H843.75C826.469 531.25 812.5 517.25 812.5 500C812.5 482.75 826.469 468.75 843.75 468.75H906.25C923.531 468.75 937.5 482.75 937.5 500Z" fill="#FFEF5D"/>
<path d="M727.906 272.094C715.688 259.875 715.688 240.125 727.906 227.906L765.156 190.656C777.375 178.438 797.125 178.438 809.344 190.656C821.562 202.875 821.562 222.625 809.344 234.844L772.094 272.094C759.875 284.312 740.125 284.312 727.906 272.094Z" fill="#FFEF5D"/>
<path d="M500 187.5C482.719 187.5 468.75 173.5 468.75 156.25V93.75C468.75 76.5 482.719 62.5 500 62.5C517.281 62.5 531.25 76.5 531.25 93.75V156.25C531.25 173.5 517.281 187.5 500 187.5Z" fill="#FFEF5D"/>
<path d="M190.656 234.844C178.438 222.625 178.438 202.875 190.656 190.656C202.875 178.438 222.625 178.438 234.844 190.656L272.094 227.906C284.312 240.125 284.312 259.875 272.094 272.094C259.875 284.312 240.125 284.312 227.906 272.094L190.656 234.844Z" fill="#FFEF5D"/>
<path d="M156.25 531.25H93.75C76.4688 531.25 62.5 517.25 62.5 500C62.5 482.75 76.4688 468.75 93.75 468.75H156.25C173.531 468.75 187.5 482.75 187.5 500C187.5 517.25 173.531 531.25 156.25 531.25Z" fill="#FFEF5D"/>
<path d="M258.219 562.5C253.031 542.469 250 521.625 250 500C250 362.156 362.156 250 500 250C637.844 250 750 362.156 750 500C750 521.625 746.969 542.469 741.781 562.5H258.219Z" fill="#FFEF5D"/>
<path d="M828.125 687.5H171.875C163.25 687.5 156.25 680.5 156.25 671.875V640.625C156.25 632 163.25 625 171.875 625H828.125C836.75 625 843.75 632 843.75 640.625V671.875C843.75 680.5 836.75 687.5 828.125 687.5Z" fill="#50D9D7"/>
<path d="M609.375 937.5H390.625C382 937.5 375 930.5 375 921.875V890.625C375 882 382 875 390.625 875H609.375C618 875 625 882 625 890.625V921.875C625 930.5 618 937.5 609.375 937.5Z" fill="#00AFFD"/>
<path d="M734.375 812.5H265.625C257 812.5 250 805.5 250 796.875V765.625C250 757 257 750 265.625 750H734.375C743 750 750 757 750 765.625V796.875C750 805.5 743 812.5 734.375 812.5Z" fill="#4AA5FF"/>
</svg>
